<svg xmlns="http://www.w3.org/2000/svg" version="1.1" xmlns:xlink="http://www.w3.org/1999/xlink" xmlns:svgjs="http://svgjs.dev/svgjs" width="1000" height="623" viewBox="0 0 1000 623">
<g transform="matrix(1,0,0,1,-0.6060606060606233,0.2522267206477409)">
<svg viewBox="0 0 396 247" data-background-color="#ffffff" preserveAspectRatio="xMidYMid meet" height="623" width="1000" xmlns="http://www.w3.org/2000/svg" xmlns:xlink="http://www.w3.org/1999/xlink"><g id="tight-bounds" transform="matrix(1,0,0,1,0.2400000000000091,-0.09999999999999432)"><svg viewBox="0 0 395.52 247.2" height="247.2" width="395.52"><g><svg></svg></g><g><svg viewBox="0 0 395.52 247.2" height="247.2" width="395.52"><g transform="matrix(1,0,0,1,75.54432,63.48693879069768)"><svg viewBox="0 0 244.43135999999998 120.22612241860463" height="120.22612241860463" width="244.43135999999998"><g><svg viewBox="0 0 244.43135999999998 120.22612241860463" height="120.22612241860463" width="244.43135999999998"><g><svg viewBox="0 0 244.43135999999998 120.22612241860463" height="120.22612241860463" width="244.43135999999998"><g><svg viewBox="0 0 244.43135999999998 120.22612241860463" height="120.22612241860463" width="244.43135999999998"><g id="textblocktransform"><svg viewBox="0 0 244.43135999999998 120.22612241860463" height="120.22612241860463" width="244.43135999999998" id="textblock"><g><svg viewBox="0 0 244.43135999999998 120.22612241860463" height="120.22612241860463" width="244.43135999999998"><g transform="matrix(1,0,0,1,0,0)"><svg width="244.43135999999998" viewBox="-0.08000000566244125 -30.920000076293945 68.79000091552734 33.84000015258789" height="120.22612241860463" data-palette-color="#000000"><path d="M1.72-25.6L1.72-25.6Q1.44-24.92 1.44-24.4 1.44-23.88 1.76-23.88L1.76-23.88Q1.68-23.32 0.88-23.32L0.88-23.32Q-0.08-23.32-0.08-24.72-0.08-26.12 1.48-27.36L1.48-27.36Q3.08-28.6 5.58-28.6 8.08-28.6 9.74-26.74 11.4-24.88 12.02-22.2 12.64-19.52 12.64-16.04L12.64-16.04Q12.64-8.8 10.04 0.72L10.04 0.72Q9.88 1.2 10.36 1.2L10.36 1.2Q10.72 1.2 11.08 0.88L11.08 0.88Q15.28-2.96 19.04-12.24 22.8-21.52 22.8-27.12L22.8-27.12Q22.8-29.6 21.72-29.6L21.72-29.6Q21.84-30.16 22.32-30.54 22.8-30.92 23.44-30.92L23.44-30.92Q25.2-30.92 25.2-27.92L25.2-27.92Q25.2-23.6 22.52-16.26 19.84-8.92 15.88-3 11.92 2.92 8.88 2.92L8.88 2.92Q6.8 2.92 6.8 0.92L6.8 0.92Q7.92-2.4 8.88-8.18 9.84-13.96 9.84-18.04L9.84-18.04Q9.84-27.64 5.04-27.64L5.04-27.64Q2.6-27.64 1.72-25.6ZM26.16-3.4L26.16-3.4Q26.16-9.32 27.38-13.96 28.6-18.6 30.48-18.6L30.48-18.6Q31.4-18.6 31.4-17.6L31.4-17.6Q31-16.56 30.4-14.84 29.8-13.12 28.82-8.62 27.84-4.12 27.84-0.6L27.84-0.6Q27.84-0.04 27.24-0.04L27.24-0.04Q26.16-0.04 26.16-3.4ZM32-23.04L31.52-22.36Q30.68-22.36 30.68-23.96L30.68-23.96Q30.68-24.92 31.2-25.98 31.72-27.04 32.68-27.04L32.68-27.04Q33.48-27.04 33.48-26.12L33.48-26.12Q33.48-25.2 32-23.04L32-23.04ZM36.55-6.48L36.91-6.48Q42.08-19.24 46.95-19.24L46.95-19.24Q49-19.24 49-17.28L49-17.28Q48.72-16.36 48.27-14.86 47.84-13.36 47.09-9.48 46.36-5.6 46.36-2.68L46.36-2.68Q46.36 1.56 47.59 1.56L47.59 1.56Q48.08 1.56 48.52 1.18 48.95 0.8 49.12 0.8L49.12 0.8Q49.67 0.8 49.12 1.68L49.12 1.68Q48.91 1.96 48.38 2.44 47.84 2.92 47.27 2.92L47.27 2.92Q45.76 2.92 44.9 0.74 44.04-1.44 44.04-4.92L44.04-4.92Q44.04-10.44 45.76-17.04L45.76-17.04Q45.91-17.56 45.44-17.56L45.44-17.56Q45.12-17.56 44.72-17.24L44.72-17.24Q42.8-15.56 40.67-11.68 38.55-7.8 37.36-4.74 36.16-1.68 36.16-1.18 36.16-0.68 35.59-0.68L35.59-0.68Q34.31-0.68 34.31-3.84L34.31-3.84Q34.31-9.8 35.54-14.64 36.76-19.48 38.48-19.48L38.48-19.48Q39.2-19.48 39.2-18.6L39.2-18.6Q37.36-12.64 36.55-6.48L36.55-6.48ZM56.63 0.36L56.63 0.36Q51.71 0.36 51.71-6.4L51.71-6.4Q51.71-10.2 53.63-14L53.63-14Q56.07-18.8 59.43-18.8L59.43-18.8Q59.91-18.8 60.23-18.56 60.55-18.32 60.67-17.84L60.67-17.84Q58.15-17.84 56.31-13.8 54.47-9.76 54.47-5.84L54.47-5.84Q54.47-1.08 57.07-1.08L57.07-1.08Q58.55-1.08 60.15-3.34 61.75-5.6 62.81-9.28 63.87-12.96 63.87-16.68L63.87-16.68 63.87-17.16Q62.63-17.96 61.83-19.16 61.03-20.36 61.03-20.92 61.03-21.48 61.53-21.98 62.03-22.48 62.55-22.48L62.55-22.48Q63.31-22.48 64.03-21.12 64.75-19.76 65.03-18.04L65.03-18.04Q66.27-17.2 67.21-17.2 68.15-17.2 68.71-17.52L68.71-17.52Q68.71-16.96 68.31-16.52 67.91-16.08 67.07-16.08 66.23-16.08 65.15-16.48L65.15-16.48Q65.11-12.64 63.99-8.76 62.87-4.88 60.87-2.26 58.87 0.36 56.63 0.36Z" opacity="1" transform="matrix(1,0,0,1,0,0)" fill="#ffffff" class="undefined-text-0" data-fill-palette-color="primary" id="text-0"></path></svg></g></svg></g></svg></g></svg></g></svg></g></svg></g></svg></g><path d="M239.338 57.487L239.338 9.627 11.391 9.627 11.391 237.573 239.338 237.573 239.338 189.713 228.496 189.713 228.496 226.731 22.234 226.731 22.234 20.469 228.496 20.469 228.496 57.487Z" fill="#ffffff" stroke="transparent" data-fill-palette-color="primary"></path></svg></g><defs></defs></svg><rect width="395.52" height="247.2" fill="none" stroke="none" visibility="hidden"></rect></g></svg></g></svg>