<?xml version="1.0" encoding="UTF-8" standalone="no"?>
<!DOCTYPE svg PUBLIC "-//W3C//DTD SVG 1.1//EN" "http://www.w3.org/Graphics/SVG/1.1/DTD/svg11.dtd">
<svg width="100%" height="100%" viewBox="0 0 1103 805" version="1.1" xmlns="http://www.w3.org/2000/svg" xmlns:xlink="http://www.w3.org/1999/xlink" xml:space="preserve" xmlns:serif="http://www.serif.com/" style="fill-rule:evenodd;clip-rule:evenodd;stroke-linejoin:round;stroke-miterlimit:1.41421;">
    <g id="Plan-de-travail1" serif:id="Plan de travail1" transform="matrix(2.45556,0,0,1.53097,3020.78,620.827)">
        <rect x="-1230.18" y="-405.511" width="449.176" height="525.737" style="fill:none;"/>
        <clipPath id="_clip1">
            <rect x="-1230.18" y="-405.511" width="449.176" height="525.737"/>
        </clipPath>
        <g clip-path="url(#_clip1)">
            <g id="text-0" transform="matrix(1.4557,0,0,2.67544,-1144.33,-312.022)">
                <path d="M6.413,18.901C5.75,20.511 5.418,21.933 5.418,23.164C5.418,24.396 5.797,25.012 6.555,25.012C6.365,26.338 5.323,27.001 3.428,27.001C1.155,27.001 0.018,25.343 0.018,22.027C0.018,18.711 1.865,15.585 5.56,12.648C9.35,9.711 14.205,8.242 20.127,8.242C26.048,8.242 30.974,10.445 34.906,14.851C38.838,19.256 41.538,24.633 43.006,30.98C44.475,37.328 45.209,44.623 45.209,52.865C45.209,70.013 42.13,89.862 35.972,112.41C35.593,113.547 35.972,114.115 37.109,114.115C37.961,114.115 38.814,113.736 39.667,112.978C49.615,103.883 59.041,88.346 67.947,66.366C76.853,44.386 81.305,26.764 81.305,13.501C81.305,7.627 80.026,4.69 77.468,4.69C77.753,3.363 78.463,2.25 79.6,1.35C80.737,0.45 82.063,0 83.579,0C87.748,0 89.832,3.553 89.832,10.658C89.832,20.89 86.658,34.699 80.311,52.084C73.963,69.469 66.099,85.172 56.72,99.194C47.341,113.215 39.051,120.226 31.851,120.226C26.924,120.226 24.461,117.858 24.461,113.121C27.114,105.257 29.577,94.48 31.851,80.79C34.124,67.1 35.261,55.423 35.261,45.76C35.261,23.022 29.577,11.653 18.208,11.653C12.429,11.653 8.497,14.069 6.413,18.901ZM93.243,97.773C93.243,83.751 94.688,71.245 97.577,60.255C100.467,49.265 104.138,43.77 108.591,43.77C110.77,43.77 111.859,44.955 111.859,47.323C110.912,49.786 109.728,53.055 108.307,57.129C106.885,61.203 105.014,68.569 102.693,79.227C100.372,89.885 99.211,99.383 99.211,107.72C99.211,109.047 98.501,109.71 97.08,109.71C94.522,109.71 93.243,105.731 93.243,97.773ZM113.991,27.996L112.286,30.412C110.296,30.412 109.301,28.517 109.301,24.727C109.301,22.454 109.917,20.061 111.149,17.551C112.38,15.04 114.133,13.785 116.407,13.785C118.302,13.785 119.249,14.874 119.249,17.053C119.249,19.232 117.496,22.88 113.991,27.996ZM130.156,86.83L131.435,86.83C143.68,56.608 155.57,41.496 167.105,41.496C171.961,41.496 174.388,43.818 174.388,48.46C173.725,50.639 172.861,53.505 171.795,57.058C170.776,60.61 169.379,66.982 167.602,76.172C165.873,85.361 165.009,93.414 165.009,100.331C165.009,110.373 166.466,115.394 169.379,115.394C170.539,115.394 171.641,114.944 172.683,114.044C173.701,113.144 174.412,112.694 174.815,112.694C176.117,112.694 176.117,113.736 174.815,115.821C174.317,116.484 173.441,117.384 172.186,118.521C170.907,119.658 169.592,120.226 168.242,120.226C164.665,120.226 161.859,117.644 159.822,112.481C157.785,107.318 156.766,100.615 156.766,92.372C156.766,79.298 158.803,64.945 162.877,49.313C163.233,48.081 162.854,47.465 161.74,47.465C160.982,47.465 160.13,47.844 159.182,48.602C154.635,52.581 149.839,59.166 144.794,68.356C139.772,77.545 135.852,85.764 133.034,93.012C130.192,100.259 128.771,104.475 128.771,105.66C128.771,106.844 128.096,107.436 126.745,107.436C123.714,107.436 122.198,103.694 122.198,96.209C122.198,82.093 123.655,69.303 126.568,57.839C129.457,46.376 132.939,40.644 137.013,40.644C138.718,40.644 139.571,41.686 139.571,43.77C135.213,57.887 132.075,72.24 130.156,86.83ZM201.496,111.131C189.843,111.131 184.016,103.125 184.016,87.114C184.016,78.114 186.29,69.113 190.838,60.113C196.617,48.744 203.486,43.06 211.444,43.06C212.581,43.06 213.528,43.344 214.286,43.912C215.044,44.481 215.565,45.333 215.849,46.47C209.881,46.47 204.717,51.255 200.359,60.824C196.001,70.392 193.822,79.819 193.822,89.104C193.822,100.378 196.901,106.015 203.059,106.015C206.565,106.015 210.212,103.339 214.002,97.986C217.791,92.633 220.942,85.598 223.452,76.882C225.963,68.166 227.218,59.403 227.218,50.592L227.218,48.886C224.281,46.991 221.865,44.623 219.97,41.781C218.076,38.938 217.128,36.854 217.128,35.528C217.128,34.201 217.72,32.946 218.905,31.762C220.089,30.578 221.297,29.985 222.528,29.985C224.329,29.985 226.081,31.596 227.787,34.817C229.492,38.038 230.676,41.686 231.339,45.76C234.276,47.749 236.858,48.744 239.084,48.744C241.311,48.744 243.087,48.365 244.414,47.607C244.414,48.934 243.94,50.118 242.992,51.16C242.045,52.202 240.577,52.723 238.587,52.723C236.597,52.723 234.324,52.25 231.766,51.302C231.671,60.397 230.297,69.54 227.644,78.73C224.992,87.919 221.297,95.617 216.56,101.823C211.823,108.028 206.801,111.131 201.496,111.131Z" style="fill:white;fill-rule:nonzero;"/>
            </g>
            <g transform="matrix(0.407239,0,0,0.653179,-1246.78,-499.604)">
                <path d="M850.618,314.091L850.618,144.055L40.772,144.055L40.772,953.897L850.618,953.897L850.618,783.861L812.098,783.861L812.098,915.378L79.295,915.378L79.295,182.574L812.098,182.574L812.098,314.091L850.618,314.091Z" style="fill:white;fill-rule:nonzero;"/>
            </g>
        </g>
    </g>
</svg>
