<?xml version="1.0" encoding="utf-8"?>
<!-- Generator: Adobe Illustrator 26.3.1, SVG Export Plug-In . SVG Version: 6.00 Build 0)  -->
<svg version="1.1" id="textblock" xmlns:svgjs="http://svgjs.dev/svgjs"
	 xmlns="http://www.w3.org/2000/svg" xmlns:xlink="http://www.w3.org/1999/xlink" x="0px" y="0px" viewBox="0 0 575 574.9"
	 style="enable-background:new 0 0 575 574.9;" xml:space="preserve">
<style type="text/css">
	.st0{display:none;fill:none;}
	.st1{fill:#FFFFFF;}
</style>
<rect width="575" height="574.9"/>
<rect x="-28.7" y="-24.3" class="st0" width="997.6" height="623.5"/>
<path class="st1" d="M126,127.9L126,127.9c-2.6,6.2-3.9,11.7-3.9,16.5c0,4.8,1.5,7.2,4.4,7.2l0,0c-0.7,5.1-4.8,7.7-12.1,7.7l0,0
	c-8.8,0-13.2-6.4-13.2-19.3c0-12.8,7.2-24.9,21.5-36.3l0,0c14.7-11.4,33.5-17.1,56.4-17.1s42,8.5,57.2,25.6
	c15.2,17.1,25.7,37.9,31.4,62.5c5.7,24.6,8.5,52.8,8.5,84.7l0,0c0,66.4-11.9,143.3-35.8,230.6l0,0c-1.5,4.4,0,6.6,4.4,6.6l0,0
	c3.3,0,6.6-1.5,9.9-4.4l0,0c38.5-35.2,75-95.4,109.5-180.5S416,158.3,416,107l0,0c0-22.7-5-34.1-14.9-34.1l0,0
	c1.1-5.1,3.9-9.4,8.3-12.9s9.5-5.2,15.4-5.2l0,0c16.1,0,24.2,13.8,24.2,41.3l0,0c0,39.6-12.3,93.1-36.9,160.4
	c-24.6,67.3-55,128.1-91.3,182.4s-68.4,81.4-96.3,81.4l0,0c-19.1,0-28.6-9.2-28.6-27.5l0,0c10.3-30.4,19.8-72.2,28.6-125.2
	s13.2-98.2,13.2-135.6l0,0c0-88-22-132.1-66-132.1l0,0C149.3,99.8,134.1,109.2,126,127.9z"/>
</svg>
