<?xml version="1.0" encoding="utf-8"?>
<!-- Generator: Adobe Illustrator 26.3.1, SVG Export Plug-In . SVG Version: 6.00 Build 0)  -->
<svg version="1.1" id="Layer_1" xmlns="http://www.w3.org/2000/svg" xmlns:xlink="http://www.w3.org/1999/xlink" x="0px" y="0px"
	 viewBox="0 0 274 452" style="enable-background:new 0 0 274 452;" xml:space="preserve">
<style type="text/css">
	.st0{fill:#FFFFFF;}
</style>
<g>
	<g>
		<g>
			<path d="M50,414.7c-3,0-5.4-0.1-7.7-0.4c-4.2-0.5-8.1-2-11.8-3.5c-0.7-0.3-1.4-0.5-2.1-0.8c-5.5-2.1-5.5-7.6-5.5-9.6
				c0.1-29.6,0.1-59.7,0.1-88.7l0-24.8l0-28.2c0-27.6,0-56.2,0-84.3c0-8.9,4.2-16.2,12.5-21.8c2.8-1.9,5.9-3.2,8.8-4.4
				c2-0.8,3.9-1.6,5.7-2.6c0.2-0.2,0.7-1.1,0.7-1.5c0.2-27.4,0.2-50,0-70.9c0-2.5-0.3-5-0.6-7.7c-0.3-2.7-0.7-5.5-0.7-8.3
				c0-3.9,0.8-7.9,2.2-11.3c1.2-2.9,5.1-5.1,7.9-5.3c4.3-0.2,8.2-0.3,12-0.3c4,0,7.8,0.1,11.4,0.4c3.3,0.2,7.4,3.4,8.2,6.5
				c2.1,7.5,4.1,16.4,0.4,25.4c-0.1,0.3-0.1,1.1,0,1.7c0,0.5,0,0.9,0,1.3c0,6.3,0,12.5,0,18.8c0,15.6,0,31.7-0.1,47.5
				c0,2.6,0.1,3.1,3.3,4.2c16.3,5.5,25.3,16.7,25.2,31.6C120,228,120,279.3,120,328.9l0,49.6c0,2.8,0,5.6,0,8.4c0,2.6,0,5.2,0,7.8
				c0,13.3-6.6,19.8-20.1,19.8c-5.6,0-11.3,0-17,0l-21.9,0c-1.8,0-3.6,0-5.4,0.1C53.8,414.7,51.9,414.7,50,414.7z"/>
			<path class="st0" d="M71.5,43.3c3.7,0,7.5,0.1,11.2,0.3c2,0.1,5,2.4,5.5,4.3c2.2,7.7,3.7,15.6,0.5,23.5c-0.5,1.2-0.2,2.8-0.2,4.2
				c0,22.1,0.1,44.2-0.1,66.2c0,4,1,5.6,5.3,7.1c12.2,4.1,23.2,12.9,23.2,28.7c-0.1,66.9-0.1,133.9-0.1,200.8
				c0,5.4,0.1,10.8,0.1,16.3c0,11.6-5.2,16.8-17.1,16.8c-5.6,0-11.3,0-16.9,0c-7,0-14,0-21,0c-0.3,0-0.6,0-0.9,0
				c-3.7,0-7.4,0.2-11,0.2c-2.5,0-4.9-0.1-7.3-0.4c-4.5-0.5-8.9-2.5-13.2-4.1c-3-1.1-3.5-3.7-3.5-6.8C26,362.6,26,324.8,26,286.9
				c0-37.5,0-75,0-112.5c0-8.7,4.6-14.8,11.2-19.3c4.3-2.9,9.6-4.4,14.2-6.9c1.2-0.6,2.2-2.7,2.3-4.1c0.1-23.7,0.2-47.3,0-71
				c0-5.3-1.3-10.6-1.3-16c0-3.4,0.7-7,2-10.1c0.7-1.6,3.4-3.3,5.3-3.4C63.6,43.4,67.6,43.3,71.5,43.3 M71.5,37.3
				c-3.9,0-7.8,0.1-12.2,0.3c-4.2,0.2-8.9,3.4-10.5,7.1c-1.6,3.8-2.5,8.2-2.4,12.5c0,3,0.4,5.9,0.7,8.7c0.3,2.6,0.6,5,0.6,7.3
				c0.1,20.8,0.1,43.1,0,70.2c-1.4,0.7-2.9,1.3-4.5,2c-3.1,1.3-6.3,2.7-9.3,4.7c-9.2,6.2-13.9,14.4-13.9,24.3
				c0.1,28.1,0,56.6,0,84.2c0,9.4,0,18.9,0,28.3c0,8.4,0,16.7,0,25.1c0,29,0,59-0.1,88.5c0,6.4,2.5,10.6,7.4,12.4
				c0.7,0.3,1.4,0.5,2.1,0.8c4,1.5,8,3.1,12.6,3.6c2.4,0.3,4.9,0.4,8,0.4c1.9,0,3.8,0,5.7-0.1c1.9,0,3.6-0.1,5.4-0.1l0.9,0
				c3.5,0,7,0,10.5,0c3.5,0,7,0,10.5,0c6.6,0,12,0,17,0c15.1-0.1,23.1-8,23.1-22.8c0-2.6,0-5.2,0-7.9c0-2.8,0-5.6,0-8.4
				c0-16.5,0-33,0-49.5c0-49.6,0-100.9,0.1-151.3c0-16-9.9-28.6-27.3-34.4c-0.6-0.2-1-0.4-1.2-0.5c0-0.2,0-0.5,0-0.9
				c0.1-15.8,0.1-31.9,0.1-47.5c0-6.3,0-12.5,0-18.8c0-0.6,0-1.1-0.1-1.5c0-0.2,0-0.6,0-0.8c3.6-9.3,1.9-18.5-0.5-27
				c-1.2-4.3-6.3-8.4-10.9-8.7C79.4,37.4,75.5,37.3,71.5,37.3L71.5,37.3z"/>
		</g>
	</g>
	<g>
		<g>
			<path d="M181,414.7c-3,0-5.4-0.1-7.7-0.4c-4.2-0.5-8.1-2-11.8-3.5c-0.7-0.3-1.4-0.5-2.1-0.8c-5.5-2.1-5.5-7.6-5.5-9.6
				c0.1-29.3,0.1-59.2,0.1-88l0-25.5l0-28.5c0-27.5,0-56,0-84c0-8.9,4.2-16.2,12.5-21.8c2.8-1.9,5.9-3.2,8.8-4.4
				c2-0.8,3.9-1.6,5.7-2.6c0.2-0.2,0.7-1.1,0.7-1.5c0.2-27.5,0.2-50,0-70.9c0-2.5-0.3-5-0.6-7.7c-0.3-2.7-0.7-5.5-0.7-8.3
				c0-3.9,0.8-7.9,2.2-11.3c1.1-2.6,4.8-5.1,7.9-5.3c4.3-0.2,8.2-0.3,12-0.3c4,0,7.8,0.1,11.4,0.4c3.3,0.2,7.4,3.4,8.2,6.5
				c2.1,7.5,4.1,16.4,0.4,25.4c-0.1,0.3-0.1,1.1,0,1.7c0,0.5,0,0.9,0,1.3c0,6.3,0,12.6,0,18.9c0,15.5,0,31.6-0.1,47.4
				c0,2.6,0.1,3.1,3.3,4.2c16.3,5.5,25.3,16.7,25.2,31.6c-0.1,50.6-0.1,102-0.1,151.8l0,49c0,2.8,0,5.6,0,8.4c0,2.6,0,5.2,0,7.8
				c0,13.3-6.6,19.8-20.1,19.8c-5.6,0-11.3,0-17,0l-21.9,0c-1.8,0-3.6,0-5.4,0.1C184.8,414.7,182.9,414.7,181,414.7z"/>
			<path class="st0" d="M202.5,43.3c3.7,0,7.5,0.1,11.2,0.3c2,0.1,5,2.4,5.5,4.3c2.2,7.7,3.7,15.6,0.5,23.5
				c-0.5,1.2-0.2,2.8-0.2,4.2c0,22.1,0.1,44.2-0.1,66.2c0,4,1,5.6,5.3,7.1c12.2,4.1,23.2,12.9,23.2,28.7
				c-0.1,66.9-0.1,133.9-0.1,200.8c0,5.4,0.1,10.8,0.1,16.3c0,11.6-5.2,16.8-17.1,16.8c-5.6,0-11.3,0-16.9,0c-7,0-14,0-21,0
				c-0.3,0-0.6,0-0.9,0c-3.7,0-7.4,0.2-11,0.2c-2.5,0-4.9-0.1-7.3-0.4c-4.5-0.5-8.9-2.5-13.2-4.1c-3-1.1-3.5-3.7-3.5-6.8
				c0.1-37.9,0.1-75.7,0.1-113.6c0-37.5,0-75,0-112.5c0-8.7,4.6-14.8,11.2-19.3c4.3-2.9,9.6-4.4,14.2-6.9c1.2-0.6,2.2-2.7,2.3-4.1
				c0.1-23.7,0.2-47.3,0-71c0-5.3-1.3-10.6-1.3-16c0-3.4,0.7-7,2-10.1c0.7-1.6,3.4-3.3,5.3-3.4C194.6,43.4,198.6,43.3,202.5,43.3
				 M202.5,37.3c-3.9,0-7.8,0.1-12.2,0.3c-4.2,0.2-8.9,3.4-10.5,7.1c-1.6,3.8-2.5,8.2-2.4,12.5c0,3,0.4,5.9,0.7,8.7
				c0.3,2.6,0.6,5,0.6,7.3c0.1,20.8,0.1,43.1,0,70.2c-1.4,0.7-2.9,1.3-4.5,2c-3.1,1.3-6.3,2.7-9.3,4.7c-9.2,6.2-13.9,14.4-13.9,24.3
				c0.1,28.1,0,56.6,0,84.2c0,9.4,0,18.9,0,28.3c0,8.4,0,16.7,0,25.1c0,29,0,59-0.1,88.5c0,6.4,2.5,10.6,7.4,12.4
				c0.7,0.3,1.4,0.5,2.1,0.8c4,1.5,8,3.1,12.6,3.6c2.4,0.3,4.9,0.4,8,0.4c1.9,0,3.8,0,5.7-0.1c1.9,0,3.6-0.1,5.4-0.1l0.9,0
				c3.5,0,7,0,10.5,0c3.5,0,7,0,10.5,0c6.6,0,12,0,17,0c15.1-0.1,23.1-8,23.1-22.8c0-2.6,0-5.2,0-7.9c0-2.8,0-5.6,0-8.4
				c0-16.5,0-33,0-49.5c0-49.6,0-100.9,0.1-151.3c0-16-9.9-28.6-27.3-34.4c-0.6-0.2-1-0.4-1.2-0.5c0-0.2,0-0.5,0-0.9
				c0.1-15.8,0.1-31.9,0.1-47.5c0-6.3,0-12.5,0-18.8c0-0.6,0-1.1-0.1-1.5c0-0.2,0-0.6,0-0.8c3.6-9.3,1.9-18.5-0.5-27
				c-1.2-4.3-6.3-8.4-10.9-8.7C210.4,37.4,206.5,37.3,202.5,37.3L202.5,37.3z"/>
		</g>
	</g>
	<g>
		<g>
			<path d="M114.3,431.7c-3.3,0-5.9-0.1-8.4-0.4c-4.5-0.5-8.8-2.2-12.9-3.8c-0.8-0.3-1.5-0.6-2.3-0.9c-5.8-2.2-5.8-8.1-5.8-10.3
				c0.1-32.5,0.1-65.5,0.1-97.4l0-27.6l0-31.3c0-30.3,0-61.7,0-92.5c0-9.6,4.6-17.6,13.7-23.8c3-2.1,6.4-3.5,9.6-4.8
				c2.2-0.9,4.3-1.8,6.3-2.9c0.3-0.3,0.9-1.4,0.9-1.9c0.2-30.1,0.2-55,0-78.1c0-2.8-0.3-5.5-0.7-8.5c-0.4-3-0.7-6-0.7-9.1
				c0-4.2,0.8-8.6,2.4-12.3c1.2-2.8,5.1-5.4,8.4-5.6c4.7-0.2,9.1-0.4,13.2-0.4c4.3,0,8.6,0.1,12.5,0.4c3.5,0.2,7.9,3.7,8.8,6.9
				c2.3,8.3,4.5,17.9,0.5,27.8c-0.1,0.4-0.1,1.3-0.1,2c0,0.5,0.1,1,0.1,1.5c0,6.9,0,13.8,0,20.8c0,17.1,0,34.8-0.1,52.2
				c0,3,0.1,3.7,3.8,4.9c17.8,6,27.6,18.2,27.6,34.5c-0.1,55.6-0.1,112.1-0.1,166.7c0,18.1,0,36.2,0,54.3c0,3.1,0,6.2,0,9.3
				c0,2.9,0,5.8,0,8.6c0,14.4-7.1,21.4-21.8,21.5c-6.2,0-12.3,0-18.5,0l-24.3,0c-2,0-4,0.1-6,0.1
				C118.4,431.7,116.3,431.7,114.3,431.7z"/>
			<path class="st0" d="M137.9,23.3c4.1,0,8.2,0.1,12.3,0.4c2.2,0.1,5.5,2.7,6.1,4.8c2.4,8.5,4.1,17.1,0.6,25.8
				c-0.5,1.3-0.2,3.1-0.2,4.6c0,24.3,0.1,48.6-0.1,72.9c0,4.4,1.1,6.2,5.9,7.8c13.4,4.5,25.6,14.2,25.5,31.6
				c-0.1,73.7-0.1,147.3-0.1,221c0,6,0.1,11.9,0.1,17.9c0,12.7-5.8,18.4-18.8,18.5c-6.2,0-12.4,0-18.6,0c-7.7,0-15.4,0-23.2,0
				c-0.3,0-0.7,0-1,0c-4,0-8.1,0.2-12.1,0.2c-2.7,0-5.4-0.1-8.1-0.4c-5-0.6-9.8-2.7-14.5-4.5c-3.3-1.2-3.9-4.1-3.9-7.5
				c0.1-41.7,0.1-83.3,0.1-125c0-41.3,0.1-82.5,0-123.8c0-9.6,5-16.3,12.3-21.3c4.8-3.2,10.6-4.8,15.7-7.5c1.3-0.7,2.5-3,2.5-4.5
				c0.1-26,0.2-52.1,0-78.1c0-5.9-1.4-11.7-1.4-17.6c0-3.7,0.7-7.7,2.2-11.1c0.8-1.8,3.7-3.7,5.8-3.8
				C129.2,23.4,133.6,23.3,137.9,23.3 M137.9,17.3c-4.2,0-8.6,0.1-13.4,0.4c-4.4,0.2-9.4,3.6-11,7.4c-1.7,4.1-2.7,8.9-2.6,13.5
				c0,3.3,0.4,6.4,0.8,9.5c0.3,2.8,0.7,5.5,0.7,8.1c0.2,23,0.1,47.7,0,77.7c-1.7,0.8-3.5,1.6-5.3,2.4c-3.4,1.4-6.9,2.9-10.2,5.1
				c-10,6.7-15,15.6-15,26.3c0.1,30.9,0,62.3,0,92.6c0,10.4,0,20.8,0,31.2c0,9.2,0,18.4,0,27.6c0,31.9,0,64.9-0.1,97.3
				c0,6.8,2.6,11.2,7.8,13.1c0.8,0.3,1.5,0.6,2.3,0.9c4.3,1.7,8.8,3.4,13.7,4c2.6,0.3,5.4,0.4,8.8,0.4c2.1,0,4.2-0.1,6.2-0.1
				c2-0.1,4-0.1,5.9-0.1l1,0c3.9,0,7.7,0,11.6,0c3.9,0,7.7,0,11.6,0c7.3,0,13.2,0,18.7,0c8.2,0,14.3-2.1,18.5-6.2
				c4.2-4.2,6.3-10.2,6.3-18.3c0-2.9,0-5.8,0-8.6c0-3.1,0-6.2,0-9.2c0-18.2,0-36.3,0-54.5c0-54.6,0-111,0.1-166.5
				c0-9.6-3.1-17.9-9.3-24.7c-5-5.5-11.9-9.8-20.3-12.6c-0.9-0.3-1.5-0.6-1.7-0.7c0-0.2-0.1-0.7-0.1-1.3c0.1-17.4,0.1-35.1,0.1-52.3
				c0-6.9,0-13.8,0-20.7c0-0.6,0-1.1-0.1-1.6c0-0.3,0-0.8,0-1c4.1-10.6,1.9-20.7-0.5-29.4c-1.3-4.5-6.7-8.8-11.5-9.1
				C146.6,17.4,142.4,17.3,137.9,17.3L137.9,17.3z"/>
		</g>
	</g>
</g>
</svg>
